<mxfile host="65bd71144e" modified="2020-12-10T12:01:04.472Z" agent="5.0 (Macintosh; Intel Mac OS X 10_16_0) AppleWebKit/537.36 (KHTML, like Gecko) Code/1.51.1 Chrome/83.0.4103.122 Electron/9.3.3 Safari/537.36" etag="PpzrfDKJK0CwYQzOTIyx" version="13.10.0" type="embed">
    <diagram id="R2lEEEUBdFMjLlhIrx00" name="Page-1">
        <mxGraphModel dx="1470" dy="987" grid="1" gridSize="10" guides="1" tooltips="1" connect="1" arrows="1" fold="1" page="1" pageScale="1" pageWidth="850" pageHeight="1100" math="0" shadow="0" extFonts="Permanent Marker^https://fonts.googleapis.com/css?family=Permanent+Marker">
            <root>
                <mxCell id="0"/>
                <mxCell id="1" parent="0"/>
                <mxCell id="46" value="&lt;meta charset=&quot;utf-8&quot;&gt;&lt;span style=&quot;color: rgb(29, 28, 29); font-size: 15px; font-style: normal; font-weight: 400; letter-spacing: normal; text-align: left; text-indent: 0px; text-transform: none; word-spacing: 0px; background-color: rgb(248, 248, 248); display: inline; float: none;&quot;&gt;Testing for qualifications, ability, skill, interview scheduling&lt;/span&gt;" style="text;whiteSpace=wrap;html=1;" parent="1" vertex="1">
                    <mxGeometry x="860" y="100" width="410" height="30" as="geometry"/>
                </mxCell>
                <mxCell id="48" value="Activity Diagram for ATM" style="shape=table;childLayout=tableLayout;rowLines=0;columnLines=0;startSize=40;html=1;whiteSpace=wrap;collapsible=0;recursiveResize=0;expand=0;pointerEvents=0;fontStyle=1;align=center;" vertex="1" parent="1">
                    <mxGeometry x="610" y="180" width="910" height="1380" as="geometry"/>
                </mxCell>
                <mxCell id="49" value="" style="swimlane;horizontal=0;points=[[0,0.5],[1,0.5]];portConstraint=eastwest;startSize=0;html=1;whiteSpace=wrap;collapsible=0;recursiveResize=0;expand=0;pointerEvents=0;fontStyle=1" vertex="1" parent="48">
                    <mxGeometry y="40" width="910" height="1340" as="geometry"/>
                </mxCell>
                <mxCell id="50" value="Customer" style="swimlane;connectable=0;startSize=40;html=1;whiteSpace=wrap;collapsible=0;recursiveResize=0;expand=0;pointerEvents=0;" vertex="1" parent="49">
                    <mxGeometry width="318" height="1340" as="geometry"/>
                </mxCell>
                <mxCell id="51" style="edgeStyle=orthogonalEdgeStyle;rounded=0;orthogonalLoop=1;jettySize=auto;html=1;exitX=0.5;exitY=1;exitDx=0;exitDy=0;entryX=0.5;entryY=0;entryDx=0;entryDy=0;" edge="1" parent="50" source="52" target="53">
                    <mxGeometry relative="1" as="geometry"/>
                </mxCell>
                <mxCell id="52" value="" style="shape=ellipse;html=1;fillColor=#000000;strokeWidth=2;verticalLabelPosition=bottom;verticalAlignment=top;perimeter=ellipsePerimeter;" vertex="1" parent="50">
                    <mxGeometry x="100" y="90" width="40" height="40" as="geometry"/>
                </mxCell>
                <mxCell id="53" value="Insert ATM Card" style="shape=rect;html=1;rounded=1;whiteSpace=wrap;align=center;" vertex="1" parent="50">
                    <mxGeometry x="40" y="180" width="160" height="60" as="geometry"/>
                </mxCell>
                <mxCell id="54" style="edgeStyle=orthogonalEdgeStyle;rounded=0;orthogonalLoop=1;jettySize=auto;html=1;exitX=0.5;exitY=1;exitDx=0;exitDy=0;entryX=0.5;entryY=0;entryDx=0;entryDy=0;" edge="1" parent="50" source="55" target="56">
                    <mxGeometry relative="1" as="geometry"/>
                </mxCell>
                <mxCell id="55" value="Take Card" style="shape=rect;html=1;rounded=1;whiteSpace=wrap;align=center;" vertex="1" parent="50">
                    <mxGeometry x="40" y="360" width="160" height="40" as="geometry"/>
                </mxCell>
                <mxCell id="56" value="" style="ellipse;html=1;shape=endState;fillColor=#000000;strokeColor=#ff0000;" vertex="1" parent="50">
                    <mxGeometry x="105" y="420" width="30" height="30" as="geometry"/>
                </mxCell>
                <mxCell id="57" value="Enter PIN" style="shape=rect;html=1;rounded=1;whiteSpace=wrap;align=center;" vertex="1" parent="50">
                    <mxGeometry x="40" y="465" width="160" height="60" as="geometry"/>
                </mxCell>
                <mxCell id="58" value="Enter Amount" style="shape=rect;html=1;rounded=1;whiteSpace=wrap;align=center;" vertex="1" parent="50">
                    <mxGeometry x="50" y="565" width="160" height="60" as="geometry"/>
                </mxCell>
                <mxCell id="59" value="Take the money from slot" style="shape=rect;html=1;rounded=1;whiteSpace=wrap;align=center;" vertex="1" parent="50">
                    <mxGeometry x="50" y="850" width="160" height="60" as="geometry"/>
                </mxCell>
                <mxCell id="60" style="edgeStyle=orthogonalEdgeStyle;rounded=0;orthogonalLoop=1;jettySize=auto;html=1;exitX=0.5;exitY=1;exitDx=0;exitDy=0;entryX=0.5;entryY=0;entryDx=0;entryDy=0;" edge="1" parent="50" source="61" target="62">
                    <mxGeometry relative="1" as="geometry"/>
                </mxCell>
                <mxCell id="61" value="Take Card" style="shape=rect;html=1;rounded=1;whiteSpace=wrap;align=center;" vertex="1" parent="50">
                    <mxGeometry x="48" y="1130" width="162" height="60" as="geometry"/>
                </mxCell>
                <mxCell id="62" value="" style="ellipse;html=1;shape=endState;fillColor=#000000;strokeColor=#ff0000;" vertex="1" parent="50">
                    <mxGeometry x="114" y="1230" width="30" height="30" as="geometry"/>
                </mxCell>
                <mxCell id="63" value="ATM Machine" style="swimlane;connectable=0;startSize=40;html=1;whiteSpace=wrap;collapsible=0;recursiveResize=0;expand=0;pointerEvents=0;" vertex="1" parent="49">
                    <mxGeometry x="318" width="288" height="1340" as="geometry"/>
                </mxCell>
                <mxCell id="64" style="edgeStyle=orthogonalEdgeStyle;rounded=0;orthogonalLoop=1;jettySize=auto;html=1;entryX=0.5;entryY=0;entryDx=0;entryDy=0;" edge="1" parent="63" source="65" target="67">
                    <mxGeometry relative="1" as="geometry"/>
                </mxCell>
                <mxCell id="65" value="Validate ATM&lt;br&gt;Card" style="shape=rect;html=1;rounded=1;whiteSpace=wrap;align=center;" vertex="1" parent="63">
                    <mxGeometry x="58" y="180" width="160" height="60" as="geometry"/>
                </mxCell>
                <mxCell id="66" style="edgeStyle=orthogonalEdgeStyle;rounded=0;orthogonalLoop=1;jettySize=auto;html=1;exitX=1;exitY=0.5;exitDx=0;exitDy=0;entryX=1;entryY=0.5;entryDx=0;entryDy=0;" edge="1" parent="63" source="67" target="77">
                    <mxGeometry relative="1" as="geometry">
                        <Array as="points">
                            <mxPoint x="562" y="310"/>
                            <mxPoint x="562" y="1160"/>
                        </Array>
                    </mxGeometry>
                </mxCell>
                <mxCell id="67" value="" style="rhombus;whiteSpace=wrap;html=1;" vertex="1" parent="63">
                    <mxGeometry x="112" y="285" width="52" height="50" as="geometry"/>
                </mxCell>
                <mxCell id="68" value="Valid" style="text;html=1;align=center;verticalAlign=middle;resizable=0;points=[];autosize=1;" vertex="1" parent="63">
                    <mxGeometry x="23" y="315" width="40" height="20" as="geometry"/>
                </mxCell>
                <mxCell id="69" style="edgeStyle=orthogonalEdgeStyle;rounded=0;orthogonalLoop=1;jettySize=auto;html=1;entryX=0.5;entryY=0;entryDx=0;entryDy=0;" edge="1" parent="63" source="67" target="70">
                    <mxGeometry relative="1" as="geometry"/>
                </mxCell>
                <mxCell id="70" value="Eject Card" style="shape=rect;html=1;rounded=1;whiteSpace=wrap;align=center;" vertex="1" parent="63">
                    <mxGeometry x="58" y="350" width="160" height="60" as="geometry"/>
                </mxCell>
                <mxCell id="71" value="Balance &amp;gt; Amount" style="text;html=1;align=center;verticalAlign=middle;resizable=0;points=[];autosize=1;" vertex="1" parent="63">
                    <mxGeometry x="153" y="760" width="110" height="20" as="geometry"/>
                </mxCell>
                <mxCell id="72" value="" style="rounded=0;whiteSpace=wrap;html=1;fillColor=#000000;" vertex="1" parent="63">
                    <mxGeometry x="-37" y="810" width="350" height="20" as="geometry"/>
                </mxCell>
                <mxCell id="73" style="edgeStyle=orthogonalEdgeStyle;rounded=0;orthogonalLoop=1;jettySize=auto;html=1;exitX=0.5;exitY=1;exitDx=0;exitDy=0;" edge="1" parent="63" source="74" target="76">
                    <mxGeometry relative="1" as="geometry"/>
                </mxCell>
                <mxCell id="74" value="" style="rounded=0;whiteSpace=wrap;html=1;fillColor=#000000;" vertex="1" parent="63">
                    <mxGeometry x="-37" y="960" width="350" height="20" as="geometry"/>
                </mxCell>
                <mxCell id="75" style="edgeStyle=orthogonalEdgeStyle;rounded=0;orthogonalLoop=1;jettySize=auto;html=1;exitX=0.5;exitY=1;exitDx=0;exitDy=0;entryX=0.5;entryY=0;entryDx=0;entryDy=0;" edge="1" parent="63" source="76" target="77">
                    <mxGeometry relative="1" as="geometry"/>
                </mxCell>
                <mxCell id="76" value="Show Balance" style="shape=rect;html=1;rounded=1;whiteSpace=wrap;align=center;" vertex="1" parent="63">
                    <mxGeometry x="58" y="1020" width="160" height="60" as="geometry"/>
                </mxCell>
                <mxCell id="77" value="Eject Card" style="shape=rect;html=1;rounded=1;whiteSpace=wrap;align=center;" vertex="1" parent="63">
                    <mxGeometry x="57" y="1130" width="162" height="60" as="geometry"/>
                </mxCell>
                <mxCell id="78" value="Bank" style="swimlane;connectable=0;startSize=40;html=1;whiteSpace=wrap;collapsible=0;recursiveResize=0;expand=0;pointerEvents=0;" vertex="1" parent="49">
                    <mxGeometry x="606" width="304" height="1340" as="geometry"/>
                </mxCell>
                <mxCell id="79" style="edgeStyle=orthogonalEdgeStyle;rounded=0;orthogonalLoop=1;jettySize=auto;html=1;" edge="1" parent="78" source="80" target="81">
                    <mxGeometry relative="1" as="geometry"/>
                </mxCell>
                <mxCell id="80" value="Authorize PIN" style="shape=rect;html=1;rounded=1;whiteSpace=wrap;align=center;" vertex="1" parent="78">
                    <mxGeometry x="67" y="465" width="160" height="60" as="geometry"/>
                </mxCell>
                <mxCell id="81" value="" style="rhombus;whiteSpace=wrap;html=1;" vertex="1" parent="78">
                    <mxGeometry x="121" y="570" width="52" height="50" as="geometry"/>
                </mxCell>
                <mxCell id="82" style="edgeStyle=orthogonalEdgeStyle;rounded=0;orthogonalLoop=1;jettySize=auto;html=1;exitX=0.5;exitY=1;exitDx=0;exitDy=0;entryX=0.5;entryY=0;entryDx=0;entryDy=0;" edge="1" parent="78" source="83" target="84">
                    <mxGeometry relative="1" as="geometry"/>
                </mxCell>
                <mxCell id="83" value="Check Balance" style="shape=rect;html=1;rounded=1;whiteSpace=wrap;align=center;" vertex="1" parent="78">
                    <mxGeometry x="67" y="660" width="160" height="60" as="geometry"/>
                </mxCell>
                <mxCell id="84" value="" style="rhombus;whiteSpace=wrap;html=1;" vertex="1" parent="78">
                    <mxGeometry x="121" y="760" width="52" height="50" as="geometry"/>
                </mxCell>
                <mxCell id="85" value="Debit Account" style="shape=rect;html=1;rounded=1;whiteSpace=wrap;align=center;" vertex="1" parent="78">
                    <mxGeometry x="67" y="840" width="160" height="60" as="geometry"/>
                </mxCell>
                <mxCell id="86" value="Invalid PIN" style="text;html=1;align=center;verticalAlign=middle;resizable=0;points=[];autosize=1;" vertex="1" parent="78">
                    <mxGeometry x="157" y="1120" width="70" height="20" as="geometry"/>
                </mxCell>
                <mxCell id="87" style="edgeStyle=orthogonalEdgeStyle;rounded=0;orthogonalLoop=1;jettySize=auto;html=1;" edge="1" parent="49" source="53" target="65">
                    <mxGeometry relative="1" as="geometry"/>
                </mxCell>
                <mxCell id="88" style="edgeStyle=orthogonalEdgeStyle;rounded=0;orthogonalLoop=1;jettySize=auto;html=1;entryX=0;entryY=0.5;entryDx=0;entryDy=0;" edge="1" parent="49" source="67" target="57">
                    <mxGeometry relative="1" as="geometry">
                        <mxPoint x="40" y="520" as="targetPoint"/>
                        <Array as="points">
                            <mxPoint x="20" y="310"/>
                            <mxPoint x="20" y="500"/>
                            <mxPoint x="40" y="500"/>
                        </Array>
                    </mxGeometry>
                </mxCell>
                <mxCell id="89" style="edgeStyle=orthogonalEdgeStyle;rounded=0;orthogonalLoop=1;jettySize=auto;html=1;" edge="1" parent="49" source="70" target="55">
                    <mxGeometry relative="1" as="geometry"/>
                </mxCell>
                <mxCell id="90" style="edgeStyle=orthogonalEdgeStyle;rounded=0;orthogonalLoop=1;jettySize=auto;html=1;entryX=0;entryY=0.5;entryDx=0;entryDy=0;" edge="1" parent="49" source="57" target="80">
                    <mxGeometry relative="1" as="geometry"/>
                </mxCell>
                <mxCell id="91" style="edgeStyle=orthogonalEdgeStyle;rounded=0;orthogonalLoop=1;jettySize=auto;html=1;entryX=1;entryY=0.5;entryDx=0;entryDy=0;" edge="1" parent="49" source="81" target="58">
                    <mxGeometry relative="1" as="geometry"/>
                </mxCell>
                <mxCell id="92" style="edgeStyle=orthogonalEdgeStyle;rounded=0;orthogonalLoop=1;jettySize=auto;html=1;entryX=0;entryY=0.5;entryDx=0;entryDy=0;" edge="1" parent="49" source="58" target="83">
                    <mxGeometry relative="1" as="geometry">
                        <Array as="points">
                            <mxPoint x="120" y="690"/>
                        </Array>
                    </mxGeometry>
                </mxCell>
                <mxCell id="93" style="edgeStyle=orthogonalEdgeStyle;rounded=0;orthogonalLoop=1;jettySize=auto;html=1;exitX=0;exitY=0.5;exitDx=0;exitDy=0;entryX=0.5;entryY=0;entryDx=0;entryDy=0;" edge="1" parent="49" source="84" target="72">
                    <mxGeometry relative="1" as="geometry"/>
                </mxCell>
                <mxCell id="94" style="edgeStyle=orthogonalEdgeStyle;rounded=0;orthogonalLoop=1;jettySize=auto;html=1;exitX=0;exitY=0.5;exitDx=0;exitDy=0;entryX=1;entryY=0.5;entryDx=0;entryDy=0;" edge="1" parent="49" source="72" target="59">
                    <mxGeometry relative="1" as="geometry">
                        <Array as="points">
                            <mxPoint x="230" y="820"/>
                            <mxPoint x="230" y="880"/>
                        </Array>
                    </mxGeometry>
                </mxCell>
                <mxCell id="95" style="edgeStyle=orthogonalEdgeStyle;rounded=0;orthogonalLoop=1;jettySize=auto;html=1;exitX=1;exitY=0.25;exitDx=0;exitDy=0;entryX=0.25;entryY=0;entryDx=0;entryDy=0;" edge="1" parent="49" source="72" target="85">
                    <mxGeometry relative="1" as="geometry">
                        <Array as="points">
                            <mxPoint x="713" y="815"/>
                        </Array>
                    </mxGeometry>
                </mxCell>
                <mxCell id="96" style="edgeStyle=orthogonalEdgeStyle;rounded=0;orthogonalLoop=1;jettySize=auto;html=1;exitX=1;exitY=0.75;exitDx=0;exitDy=0;entryX=0.25;entryY=0;entryDx=0;entryDy=0;" edge="1" parent="49" source="59" target="74">
                    <mxGeometry relative="1" as="geometry"/>
                </mxCell>
                <mxCell id="97" style="edgeStyle=orthogonalEdgeStyle;rounded=0;orthogonalLoop=1;jettySize=auto;html=1;exitX=0;exitY=0.75;exitDx=0;exitDy=0;entryX=0.75;entryY=0;entryDx=0;entryDy=0;" edge="1" parent="49" source="85" target="74">
                    <mxGeometry relative="1" as="geometry"/>
                </mxCell>
                <mxCell id="98" style="edgeStyle=orthogonalEdgeStyle;rounded=0;orthogonalLoop=1;jettySize=auto;html=1;exitX=0;exitY=0.5;exitDx=0;exitDy=0;entryX=1;entryY=0.5;entryDx=0;entryDy=0;" edge="1" parent="49" source="77" target="61">
                    <mxGeometry relative="1" as="geometry"/>
                </mxCell>
                <mxCell id="99" style="edgeStyle=orthogonalEdgeStyle;rounded=0;orthogonalLoop=1;jettySize=auto;html=1;exitX=1;exitY=0.5;exitDx=0;exitDy=0;" edge="1" parent="49" source="84">
                    <mxGeometry relative="1" as="geometry">
                        <mxPoint x="537" y="1050" as="targetPoint"/>
                        <Array as="points">
                            <mxPoint x="850" y="785"/>
                            <mxPoint x="850" y="1050"/>
                            <mxPoint x="537" y="1050"/>
                        </Array>
                    </mxGeometry>
                </mxCell>
            </root>
        </mxGraphModel>
    </diagram>
</mxfile>